<?xml version="1.0" encoding="UTF-8"?>
<svg xmlns="http://www.w3.org/2000/svg" version="1.1" width="100" height="100" viewBox="0 0 100 100"><rect x="0" y="0" width="100" height="100" fill="#ffffff"/><g transform="scale(3.448)"><g transform="translate(0,0)"><path fill-rule="evenodd" d="M8 0L8 1L9 1L9 2L8 2L8 5L9 5L9 4L11 4L11 5L10 5L10 10L9 10L9 8L8 8L8 9L7 9L7 8L6 8L6 9L5 9L5 10L4 10L4 11L3 11L3 9L4 9L4 8L0 8L0 9L1 9L1 10L2 10L2 11L3 11L3 12L1 12L1 11L0 11L0 12L1 12L1 13L0 13L0 14L1 14L1 17L2 17L2 19L3 19L3 20L1 20L1 21L4 21L4 20L5 20L5 21L7 21L7 20L5 20L5 19L8 19L8 22L10 22L10 25L8 25L8 29L10 29L10 28L12 28L12 27L15 27L15 26L17 26L17 27L16 27L16 28L13 28L13 29L16 29L16 28L17 28L17 27L18 27L18 24L17 24L17 25L15 25L15 24L14 24L14 23L15 23L15 21L17 21L17 22L16 22L16 23L17 23L17 22L18 22L18 23L20 23L20 26L19 26L19 28L18 28L18 29L19 29L19 28L20 28L20 29L21 29L21 28L22 28L22 26L21 26L21 25L23 25L23 29L24 29L24 26L26 26L26 27L27 27L27 29L28 29L28 27L29 27L29 24L28 24L28 27L27 27L27 26L26 26L26 25L27 25L27 24L26 24L26 22L27 22L27 23L28 23L28 22L29 22L29 21L27 21L27 18L28 18L28 15L29 15L29 13L27 13L27 12L25 12L25 13L26 13L26 15L27 15L27 17L26 17L26 16L25 16L25 15L22 15L22 14L23 14L23 13L22 13L22 12L23 12L23 11L22 11L22 10L25 10L25 9L27 9L27 8L24 8L24 9L22 9L22 8L21 8L21 6L20 6L20 3L21 3L21 2L20 2L20 3L19 3L19 2L18 2L18 3L17 3L17 2L15 2L15 0L14 0L14 1L13 1L13 0L12 0L12 1L11 1L11 0L10 0L10 1L9 1L9 0ZM16 0L16 1L17 1L17 0ZM19 0L19 1L21 1L21 0ZM11 2L11 4L12 4L12 3L13 3L13 2ZM18 3L18 4L19 4L19 3ZM13 4L13 5L12 5L12 6L11 6L11 8L12 8L12 6L13 6L13 11L11 11L11 13L9 13L9 12L8 12L8 11L9 11L9 10L7 10L7 9L6 9L6 10L7 10L7 11L4 11L4 12L3 12L3 13L1 13L1 14L8 14L8 15L6 15L6 16L7 16L7 17L5 17L5 15L3 15L3 16L2 16L2 17L4 17L4 18L3 18L3 19L5 19L5 18L8 18L8 19L9 19L9 18L8 18L8 16L9 16L9 17L11 17L11 19L10 19L10 20L9 20L9 21L12 21L12 20L13 20L13 22L14 22L14 20L15 20L15 19L12 19L12 18L15 18L15 17L16 17L16 18L17 18L17 19L18 19L18 21L19 21L19 19L20 19L20 20L23 20L23 17L24 17L24 18L25 18L25 19L24 19L24 20L26 20L26 18L25 18L25 17L24 17L24 16L21 16L21 17L22 17L22 19L20 19L20 15L19 15L19 14L14 14L14 13L13 13L13 14L12 14L12 16L11 16L11 15L10 15L10 14L11 14L11 13L12 13L12 12L13 12L13 11L16 11L16 6L17 6L17 7L18 7L18 8L19 8L19 9L21 9L21 8L20 8L20 6L19 6L19 7L18 7L18 5L15 5L15 4ZM8 6L8 7L9 7L9 6ZM14 6L14 9L15 9L15 6ZM28 8L28 10L26 10L26 11L28 11L28 12L29 12L29 11L28 11L28 10L29 10L29 8ZM11 9L11 10L12 10L12 9ZM17 9L17 10L18 10L18 11L17 11L17 12L18 12L18 13L20 13L20 14L22 14L22 13L21 13L21 11L20 11L20 10L18 10L18 9ZM18 11L18 12L19 12L19 11ZM5 12L5 13L8 13L8 12ZM14 15L14 16L13 16L13 17L14 17L14 16L16 16L16 17L17 17L17 15ZM18 15L18 19L19 19L19 15ZM0 18L0 19L1 19L1 18ZM11 19L11 20L12 20L12 19ZM21 21L21 24L24 24L24 21ZM22 22L22 23L23 23L23 22ZM12 23L12 24L11 24L11 25L10 25L10 26L9 26L9 28L10 28L10 27L12 27L12 26L14 26L14 25L13 25L13 23ZM25 24L25 25L26 25L26 24ZM20 26L20 27L21 27L21 26ZM25 28L25 29L26 29L26 28ZM0 0L0 7L7 7L7 0ZM1 1L1 6L6 6L6 1ZM2 2L2 5L5 5L5 2ZM22 0L22 7L29 7L29 0ZM23 1L23 6L28 6L28 1ZM24 2L24 5L27 5L27 2ZM0 22L0 29L7 29L7 22ZM1 23L1 28L6 28L6 23ZM2 24L2 27L5 27L5 24Z" fill="#000000"/></g></g></svg>
