<?xml version="1.0" encoding="UTF-8"?>
<svg xmlns="http://www.w3.org/2000/svg" version="1.1" width="100" height="100" viewBox="0 0 100 100"><rect x="0" y="0" width="100" height="100" fill="#ffffff"/><g transform="scale(3.448)"><g transform="translate(0,0)"><path fill-rule="evenodd" d="M10 0L10 2L11 2L11 0ZM12 0L12 1L13 1L13 2L12 2L12 4L14 4L14 5L11 5L11 6L10 6L10 4L11 4L11 3L8 3L8 4L9 4L9 5L8 5L8 7L9 7L9 8L6 8L6 9L8 9L8 11L7 11L7 10L6 10L6 11L7 11L7 12L5 12L5 8L0 8L0 10L1 10L1 11L0 11L0 12L1 12L1 11L2 11L2 13L0 13L0 15L1 15L1 14L2 14L2 15L5 15L5 16L6 16L6 17L8 17L8 18L10 18L10 19L7 19L7 18L6 18L6 19L7 19L7 20L4 20L4 19L5 19L5 17L4 17L4 16L2 16L2 17L0 17L0 21L1 21L1 18L2 18L2 17L3 17L3 20L2 20L2 21L7 21L7 20L9 20L9 21L8 21L8 23L9 23L9 24L8 24L8 29L9 29L9 28L11 28L11 29L14 29L14 28L12 28L12 27L11 27L11 26L13 26L13 25L15 25L15 24L17 24L17 25L16 25L16 26L14 26L14 27L16 27L16 28L17 28L17 29L18 29L18 28L17 28L17 27L19 27L19 28L21 28L21 29L22 29L22 27L23 27L23 28L24 28L24 29L27 29L27 28L28 28L28 26L29 26L29 23L27 23L27 22L29 22L29 20L28 20L28 19L27 19L27 16L28 16L28 15L27 15L27 14L25 14L25 13L27 13L27 12L28 12L28 11L27 11L27 12L26 12L26 11L25 11L25 9L26 9L26 8L25 8L25 9L24 9L24 8L23 8L23 9L22 9L22 8L21 8L21 9L20 9L20 8L19 8L19 6L18 6L18 8L17 8L17 4L18 4L18 3L15 3L15 2L16 2L16 1L17 1L17 2L19 2L19 5L21 5L21 4L20 4L20 3L21 3L21 0L19 0L19 1L17 1L17 0L16 0L16 1L15 1L15 0L14 0L14 1L13 1L13 0ZM8 1L8 2L9 2L9 1ZM14 1L14 2L13 2L13 3L14 3L14 2L15 2L15 1ZM19 1L19 2L20 2L20 1ZM15 4L15 5L14 5L14 6L13 6L13 7L12 7L12 6L11 6L11 7L12 7L12 9L11 9L11 8L10 8L10 9L9 9L9 11L8 11L8 12L7 12L7 13L5 13L5 14L7 14L7 13L9 13L9 12L11 12L11 13L10 13L10 14L8 14L8 16L9 16L9 17L10 17L10 16L11 16L11 15L10 15L10 14L14 14L14 15L12 15L12 16L14 16L14 15L15 15L15 14L16 14L16 13L12 13L12 11L13 11L13 12L14 12L14 10L16 10L16 9L17 9L17 11L15 11L15 12L18 12L18 13L17 13L17 16L18 16L18 17L17 17L17 20L16 20L16 19L15 19L15 22L14 22L14 21L13 21L13 20L14 20L14 19L13 19L13 18L12 18L12 17L11 17L11 19L10 19L10 20L11 20L11 21L10 21L10 22L9 22L9 23L10 23L10 24L9 24L9 26L11 26L11 25L13 25L13 24L15 24L15 22L17 22L17 20L18 20L18 18L19 18L19 19L20 19L20 18L19 18L19 17L21 17L21 18L22 18L22 20L24 20L24 19L23 19L23 18L22 18L22 17L23 17L23 16L22 16L22 17L21 17L21 16L20 16L20 14L19 14L19 13L21 13L21 12L22 12L22 13L25 13L25 12L24 12L24 11L23 11L23 10L19 10L19 11L18 11L18 9L19 9L19 8L18 8L18 9L17 9L17 8L16 8L16 9L13 9L13 8L15 8L15 7L16 7L16 6L15 6L15 5L16 5L16 4ZM9 6L9 7L10 7L10 6ZM14 6L14 7L15 7L15 6ZM20 6L20 7L21 7L21 6ZM27 8L27 9L28 9L28 10L29 10L29 9L28 9L28 8ZM1 9L1 10L4 10L4 9ZM10 9L10 11L11 11L11 9ZM12 9L12 10L13 10L13 9ZM19 11L19 12L20 12L20 11ZM28 13L28 14L29 14L29 13ZM18 14L18 16L19 16L19 14ZM21 14L21 15L22 15L22 14ZM23 14L23 15L24 15L24 14ZM6 15L6 16L7 16L7 15ZM25 15L25 16L24 16L24 17L25 17L25 21L26 21L26 20L27 20L27 19L26 19L26 17L25 17L25 16L27 16L27 15ZM14 17L14 18L16 18L16 17ZM28 17L28 18L29 18L29 17ZM11 19L11 20L13 20L13 19ZM19 20L19 21L20 21L20 20ZM11 21L11 22L13 22L13 23L11 23L11 24L10 24L10 25L11 25L11 24L13 24L13 23L14 23L14 22L13 22L13 21ZM21 21L21 24L24 24L24 21ZM18 22L18 23L17 23L17 24L18 24L18 25L17 25L17 26L18 26L18 25L19 25L19 27L22 27L22 26L25 26L25 25L26 25L26 24L27 24L27 25L28 25L28 24L27 24L27 23L25 23L25 25L22 25L22 26L21 26L21 25L20 25L20 24L18 24L18 23L19 23L19 22ZM22 22L22 23L23 23L23 22ZM24 27L24 28L27 28L27 27ZM0 0L0 7L7 7L7 0ZM1 1L1 6L6 6L6 1ZM2 2L2 5L5 5L5 2ZM22 0L22 7L29 7L29 0ZM23 1L23 6L28 6L28 1ZM24 2L24 5L27 5L27 2ZM0 22L0 29L7 29L7 22ZM1 23L1 28L6 28L6 23ZM2 24L2 27L5 27L5 24Z" fill="#000000"/></g></g></svg>
