<?xml version="1.0" encoding="UTF-8"?>
<svg xmlns="http://www.w3.org/2000/svg" version="1.1" width="100" height="100" viewBox="0 0 100 100"><rect x="0" y="0" width="100" height="100" fill="#ffffff"/><g transform="scale(3.448)"><g transform="translate(0,0)"><path fill-rule="evenodd" d="M9 0L9 1L11 1L11 2L9 2L9 3L8 3L8 5L9 5L9 6L8 6L8 7L9 7L9 9L8 9L8 8L5 8L5 9L2 9L2 8L0 8L0 9L1 9L1 13L0 13L0 15L2 15L2 16L1 16L1 17L0 17L0 21L1 21L1 19L2 19L2 20L5 20L5 19L7 19L7 20L6 20L6 21L8 21L8 24L9 24L9 25L10 25L10 26L9 26L9 27L8 27L8 29L10 29L10 27L11 27L11 29L12 29L12 27L13 27L13 26L11 26L11 25L14 25L14 23L15 23L15 24L16 24L16 25L15 25L15 27L16 27L16 28L15 28L15 29L16 29L16 28L17 28L17 29L18 29L18 28L17 28L17 27L19 27L19 28L20 28L20 27L21 27L21 25L23 25L23 26L22 26L22 28L23 28L23 26L24 26L24 27L26 27L26 28L24 28L24 29L27 29L27 27L28 27L28 28L29 28L29 27L28 27L28 26L29 26L29 23L27 23L27 22L26 22L26 21L29 21L29 20L26 20L26 21L25 21L25 19L22 19L22 20L17 20L17 19L16 19L16 18L18 18L18 19L21 19L21 18L20 18L20 17L22 17L22 18L23 18L23 17L22 17L22 16L24 16L24 15L22 15L22 14L23 14L23 10L22 10L22 12L21 12L21 15L20 15L20 17L18 17L18 16L15 16L15 15L16 15L16 14L17 14L17 15L19 15L19 14L20 14L20 12L19 12L19 13L18 13L18 14L17 14L17 12L15 12L15 11L17 11L17 10L16 10L16 9L18 9L18 10L21 10L21 8L20 8L20 9L18 9L18 8L19 8L19 5L20 5L20 4L21 4L21 1L20 1L20 2L19 2L19 0L17 0L17 2L16 2L16 0L13 0L13 1L12 1L12 0ZM13 1L13 2L12 2L12 4L11 4L11 7L10 7L10 6L9 6L9 7L10 7L10 8L11 8L11 10L10 10L10 9L9 9L9 10L8 10L8 9L6 9L6 10L7 10L7 11L6 11L6 12L5 12L5 13L3 13L3 12L4 12L4 11L5 11L5 10L4 10L4 11L3 11L3 10L2 10L2 13L1 13L1 14L4 14L4 15L3 15L3 16L2 16L2 17L1 17L1 18L2 18L2 19L3 19L3 17L4 17L4 19L5 19L5 18L7 18L7 17L8 17L8 18L9 18L9 17L10 17L10 15L11 15L11 19L12 19L12 21L11 21L11 20L10 20L10 21L11 21L11 22L9 22L9 24L12 24L12 23L13 23L13 22L12 22L12 21L14 21L14 22L15 22L15 20L16 20L16 19L15 19L15 20L14 20L14 19L12 19L12 18L15 18L15 17L14 17L14 16L13 16L13 17L12 17L12 15L13 15L13 14L12 14L12 13L13 13L13 12L14 12L14 11L15 11L15 10L14 10L14 8L15 8L15 7L16 7L16 8L18 8L18 5L17 5L17 4L16 4L16 5L15 5L15 7L14 7L14 6L13 6L13 5L12 5L12 4L14 4L14 2L15 2L15 3L16 3L16 2L15 2L15 1ZM17 2L17 3L18 3L18 4L19 4L19 2ZM9 3L9 5L10 5L10 3ZM12 6L12 9L13 9L13 8L14 8L14 7L13 7L13 6ZM16 6L16 7L17 7L17 6ZM20 6L20 7L21 7L21 6ZM24 8L24 12L25 12L25 9L26 9L26 10L28 10L28 9L26 9L26 8ZM9 10L9 11L10 11L10 12L9 12L9 14L5 14L5 15L4 15L4 16L6 16L6 17L7 17L7 16L8 16L8 15L10 15L10 14L11 14L11 12L12 12L12 11L13 11L13 10L11 10L11 11L10 11L10 10ZM7 11L7 12L6 12L6 13L8 13L8 11ZM28 12L28 13L26 13L26 17L24 17L24 18L28 18L28 19L29 19L29 17L27 17L27 14L29 14L29 12ZM24 13L24 14L25 14L25 13ZM6 15L6 16L7 16L7 15ZM21 15L21 16L22 16L22 15ZM28 15L28 16L29 16L29 15ZM8 20L8 21L9 21L9 20ZM16 21L16 22L17 22L17 21ZM21 21L21 24L24 24L24 21ZM18 22L18 23L17 23L17 25L19 25L19 27L20 27L20 25L19 25L19 24L20 24L20 23L19 23L19 22ZM22 22L22 23L23 23L23 22ZM25 23L25 25L24 25L24 26L26 26L26 27L27 27L27 26L28 26L28 25L27 25L27 23ZM0 0L0 7L7 7L7 0ZM1 1L1 6L6 6L6 1ZM2 2L2 5L5 5L5 2ZM22 0L22 7L29 7L29 0ZM23 1L23 6L28 6L28 1ZM24 2L24 5L27 5L27 2ZM0 22L0 29L7 29L7 22ZM1 23L1 28L6 28L6 23ZM2 24L2 27L5 27L5 24Z" fill="#000000"/></g></g></svg>
